<svg xmlns="http://www.w3.org/2000/svg" viewBox="-3750 -5250 10000 9000">
  <path id="main" d="M 4135.75,1998 A 6000 4000 0 0 1 0,3100 A 3100 3100 0 1 1 3100,0 A 1150 1400 0 0 1 1950,1400 A 1150 1150 0 0 1 1032.375,943.125 A 1525 1525 0 1 1 -125,-1575 H 800 A 600 600 0 0 1 1400,-975 V 250 A 550 550 0 0 0 1950,800 A 550 800 0 0 0 2500,0 A 2450 2450 0 1 0 0,2450 C 5550,2450 6250,-2175 6250,-3000 A 6250 5600 0 0 0 5703,-5250 A 4500 3200 0 0 1 3091.125,-3238.25 A 3500 3250 0 0 0 3645.375,-4832.125 A 4200 2150 0 0 1 0,-3750 A 3750 3750 0 0 0 -3750,0 A 3750 3750 0 0 0 0,3750 A 5000 4000 0 0 0 4135.75,1998 Z M -125,-975 A 925 925 0 1 0 800,-50 V -925 A 50 50 0 0 0 750,-975 H -125 Z" fill="#5C2D91" />
</svg>
