<svg xmlns="http://www.w3.org/2000/svg" viewBox="-6000 -6000 12000 12000">
  <defs>
    <path id="facepart" d="M 0,100 A 600 600 0 0 1 -570.625,-314.625 A 100 100 0 1 1 -380.5,-376.375 A 400 400 0 0 0 380.5,-376.375 A 100 100 0 1 1 570.625,-314.625 A 600 600 0 0 1 0,100 Z" />
    <polygon id="stripe" points="-1000,-6000 -1000,6000 1000,6000 1000,-6000" />
    <clipPath id="faceclip">
      <path id="head" d="M 0,1650 A 5000 5000 0 0 1 2275.5,2197.875 L 3115.875,1041.25 A 100 100 0 0 1 3255.5,1019.125 A 100 100 0 0 1 3277.75,1158.75 L 2453.375,2293.375 A 5000 5000 0 0 1 4957,6000 H -4957 A 5000 5000 0 0 1 -2453.375,2293.375 L -3277.75,1158.75 A 100 100 0 0 1 -3255.5,1019.125 A 100 100 0 0 1 -3115.875,1041.25 L -2275.5,2197.875 A 5000 5000 0 0 1 0,1650 Z" />
    </clipPath>
    <clipPath id="viewclip">
      <polygon points="-6000,-6000 6000,-6000 6000,6000 -6000,6000" />
    </clipPath>
  </defs>
  <g id="main">
    <g>
      <use href="#stripe" transform="translate(-5000)" fill="#DD2464" />
      <use href="#stripe" transform="translate(-3000)" fill="#E96842" />
      <use href="#stripe" transform="translate(-1000)" fill="#FCBD14" />
      <use href="#stripe" transform="translate(1000)" fill="#17AF63" />
      <use href="#stripe" transform="translate(3000)" fill="#447BBE" />
      <use href="#stripe" transform="translate(5000)" fill="#664A9D" />
    </g>
    <g clip-path="url(#viewclip)">
      <use href="#head" fill="none" stroke="black" stroke-width="250" stroke-linecap="round" stroke-linejoin="round" />
      <g clip-path="url(#faceclip)">
        <use href="#head" fill="#A8A8A8" />
        <path d="M -1400,750 A 3000 3000 0 0 1 584.375,6000 H -6000 V 750 H -1400 Z" fill="#C2C2C2" />
        <g transform="translate(0, 5350)" fill="#4D4E4E">
          <use href="#facepart" />
          <use href="#facepart" transform="translate(1550,-1100)rotate(30)" />
          <use href="#facepart" transform="translate(-1550,-1100)rotate(-30)" />
        </g>
        <path d="M -2099.75,2529.125 A 4625 4625 0 0 0 -2450.875,2727.75 M -2718.5,2908.375 A 4625 4625 0 0 0 -4005.375,4337.5" fill="none" stroke="#F2F2F2" stroke-width="150" stroke-linecap="round" stroke-linejoin="round" />
      </g>
    </g>
  </g>
</svg>
