<svg xmlns="http://www.w3.org/2000/svg" viewBox="-5078 -6352 9880 10000">
  <defs>
    <radialGradient id="a" cx="307.6484" cy="1180.1826" r="127.0922" fx="334.7468" fy="1240.7589" gradientTransform="matrix(9.9972 0 0 -9.9897 190.0014 10097.8896)" gradientUnits="userSpaceOnUse">
      <stop offset="0" stop-color="#957c53" />
      <stop offset="0.762" stop-color="#d3af75" />
      <stop offset="1" stop-color="#c8a66f" />
    </radialGradient>
    <radialGradient id="b" cx="-359.3286" cy="1128.3047" r="127.1087" fx="-376.8098" fy="1192.3491" gradientTransform="matrix(10.0023 0 0 -9.9963 190.452 10105.7275)" gradientUnits="userSpaceOnUse" href="#a" />
    <radialGradient id="c" cx="-10.3877" cy="953.125" r="694.4025" fx="-10.4879" fy="953.2252" gradientTransform="matrix(9.9991 0 0 -9.9946 189.3676 10103.9014)" gradientUnits="userSpaceOnUse">
      <stop offset="0" stop-color="#efddb5" />
      <stop offset="0.407" stop-color="#efd092" />
      <stop offset="0.678" stop-color="#cca76e" />
      <stop offset="1" stop-color="#8d4600" />
    </radialGradient>
    <radialGradient id="d" cx="-28.7998" cy="1139.0557" r="358.6667" fx="-28.8998" fy="1139.1356" gradientTransform="matrix(10.0004 0 0 -9.9963 189.1561 10105.7588)" gradientUnits="userSpaceOnUse">
      <stop offset="0.631" stop-color="#570503" />
      <stop offset="0.796" stop-color="#710603" />
      <stop offset="0.889" stop-color="#680603" />
      <stop offset="1" stop-color="#570503" />
    </radialGradient>
    <linearGradient id="e" gradientUnits="userSpaceOnUse" x1="-160.7314" y1="1207.0518" x2="-80.6197" y2="1012.3447" gradientTransform="matrix(10 0 0 -10 189.5 10109.5)">
      <stop offset="0" stop-color="#346732" />
      <stop offset="1" stop-color="#021301" />
    </linearGradient>
    <linearGradient id="f" gradientUnits="userSpaceOnUse" x1="-131.3311" y1="1114.0029" x2="-174.2537" y2="1145.668" gradientTransform="matrix(10 0 0 -10 189.5 10109.5)">
      <stop offset="0" stop-color="#e6ffe6" />
      <stop offset="0.343" stop-color="#d0e6d0" />
      <stop offset="0.694" stop-color="#d0e6d0" />
      <stop offset="1" stop-color="#e6ffe6" />
    </linearGradient>
  </defs>
  <g id="main">
    <g>
      <path d="M 3618.8789,-3575.895 c 1067.5557,21.5566,1182.3438,1217.7793,1170.3408,1739.6841 c -7.5879,329.9072,-204.0596,1595.7095,-905.3135,1588.1772 c -901.0703,-9.6787,-1215.8652,-1183.3091,-1231.3086,-1708.1563 C 2634.5938,-2568.0786,3024.707,-3587.8931,3618.8789,-3575.895 z" fill="#874300" />
      <path d="M 3422.5195,-2832.1309 c 382.3965,-229.46,642.3242,242.4502,742.4922,542.04 c 130.3633,389.6982,39.6953,883.0957,-14.5957,1100.8726 c -76.2773,305.6782,-304.8184,679.8989,-435.4766,632.0566 c -222.0488,-81.3237,-379.2988,-468.3252,-416.3887,-756.7251 c -64.8848,-504.48,-46.2852,-1415.7549,123.9688,-1517.9414 z" fill="url(#a)" />
    </g>
    <g>
      <path d="M -4096.9541,-2972.6797 c -768.5845,144.0127,-1128.8589,888.0771,-924.7036,1968.1724 s 1104.8408,1668.147,1537.1699,1356.1191 c 432.3286,-312.0273,708.5391,-1332.1167,552.4204,-2028.1777 C -3088.1865,-2372.627,-3481.1348,-3088.0684,-4096.9541,-2972.6797 z" fill="#874300" />
      <path d="M -3736.0869,-2276.7324 c -413.4985,-167.9395,-597.437,338.8701,-650.1489,650.4551 c -68.7178,405.3613,97.1221,879.0825,184.4414,1085.8071 c 122.6262,290.4941,406.3923,625.1714,528.1191,557.6953 c 207.0498,-114.7539,303.0732,-521.5063,294.668,-812.4014 C -3392.8101,-1303.6895,-3552.0454,-2201.6611,-3736.0869,-2276.7324 z" fill="url(#b)" />
    </g>
    <g>
      <path d="M -1245,-3899.5 c 263.3521,-18.6147,1622.2959,-295.3687,2776.5,-592 L 2350,-6352 l 0.2568,0.001 C 784.4209,-5669.7656,-1081.0098,-4211.3779,-1245,-3899.5 z" fill="#613000" />
      <path d="M 3770.1445,-959.9077 c 34.1279,-738.9326,-253.8799,-2273.9297,-1143.0156,-3112.0537 c 145.1709,-265.4634,313.4297,-578.436,627.0088,-950.0166 C 1916.6045,-4850.3232,-551.0181,-4027.9893,-947,-4000 c 163.9922,-311.8833,1731.1416,-1669.7549,3297,-2352.0005 c -4745.7129,966.1392,-6583.3271,2847.98,-6160.9629,5997.1035 c -782.3479,969.3403,-496.9495,2365.3687,471.0066,3205.0562 c 1048.6729,909.708,3168.2783,976.7373,5183.0732,526.0078 C 4846.5098,2704.2822,4916.2207,-147.4199,3770.1445,-959.9077 z" fill="#874300" />
      <path d="M -149.0107,-2456.8184 C -978.375,-4091.7539,-3556.5029,-4300.9873,-3092.5879,-428.459 c -1535.8398,2112.5703,1039.8438,4096.5234,4335.4404,3312.542 c 3131.7686,-745.0088,2735.665,-3231.9248,1830.0537,-3791.0713 C 2922.6475,-4811.7363,362.9609,-4123.7529,-149.0107,-2456.8184 z" fill="url(#c)" />
    </g>
    <g>
      <path d="M 98.1611,1254.6836 c -398.2202,30.9844,-799.0396,68.6777,-1197.5518,42.9824 c -310.0146,-19.9922,-630.7314,-52.7842,-914.543,-179.04 c -152.0088,-67.6719,-260.6123,-292.1924,-329.3164,-374.5566 c -60.0029,-107.0615,-184.5049,-154.9463,-206.708,-83.9736 c -59.5,190.3242,-46.2041,419.8428,46.4033,596.5889 c 98.2021,187.3271,288.8115,327.0742,482.3164,412.6494 c 269.5137,119.1582,571.2266,158.2373,864.8428,182.9346 c 432.02,36.2871,868.5342,32.5869,1301.0527,-1.0059 c 432.3242,-33.4834,864.042,-97.1631,1285.458,-199.7256 c 286.2139,-69.6729,578.3262,-154.9453,826.1396,-314.1875 c 178.0059,-114.4521,344.8203,-281.8945,412.9189,-482.2246 c 64.1045,-188.9287,41.9063,-417.6484,-46.3008,-596.5898 c -32.999,-66.6665,-148.5127,-0.0977,-191.3076,114.96 c -55.207,91.9697,-127.8086,330.5879,-267.5117,420.8604 c -260.8125,168.5254,-572.7305,250.4004,-875.9463,317.9746 c -389.8125,86.9717,-791.5303,111.4648,-1189.751,142.4512 z" fill="url(#d)" />
      <g id="eye">
        <path d="M -1624.5693,-841.728 c -53.8037,-696.2158,212.2207,-1016.4409,569.3594,-1044.4238 c 357.04,-27.3872,670.0718,247.8608,723.7783,943.8721 C -277.6265,-246.3613,-543.6523,74.1709,-900.7905,102.1538 C -1257.8296,129.5415,-1570.8623,-146.0146,-1624.5693,-841.728 z" fill="url(#e)" />
        <path d="M -1443.9121,-1104.6924 c -19.293,-247.9668,72.3896,-355.1836,171.873,-362.8643 c 99.4727,-7.6924,206.6602,84.0527,225.9531,332.1172 c 19.2939,248.3584,-72.4854,354.8721,-171.9697,362.9639 C -1317.4316,-764.4912,-1424.5107,-856.334,-1443.9121,-1104.6924 z" fill="url(#f)" />
      </g>
      <use href="#eye" x="1890" y="-145" />
    </g>
  </g>
</svg>
