<svg xmlns="http://www.w3.org/2000/svg" viewBox="-4300 -5000 8660 10000">
  <g id="main">
    <polygon fill="#053D53" points="0,5000 -4330,2500 -4330,-2500 0,-5000 4330,-2500 4330,2500" />
    <path
      d="M 2160.9414,123.5313 L 2830.4688,19.875 c 933.6133-144.5469,1123.8867-175.3242,1118.3203-180.8984 c -4.4609-4.4453-693.7656-113.4688-1437.0234-227.2813 c -421.332-64.5078-390.0469-49.293-297.0586-144.4141 c 101.4336-103.75,140.8789-113.082,330.5508-78.1406 c 297.6133,54.8242,336.625,42.3789,495.4844-158.082 c 81.6602-103.0469,142.7539-120.4258,294.5508-83.7617 c 210.4414,50.8086,358.6953,2.6797,431.7188-140.168 l 23.4219-45.8008 l -39.332,8.2734 c -173.7891,36.5273-238.1719,30.9766-374.6328-32.332 c -208.6328-96.8008-292.7383-101.4922-458.8203-25.5977 c -129.4453,59.1523-198.543,65.1992-317.7305,27.7773 c -128.9336-40.4844-321.0117-38.3086-452.3477,5.1172 c -51.4961,17.0195-94.6484,29.8477-95.9102,28.4883 S 2358.3398-1278,2735.9844-1581.8359 c 377.6484-303.8242,684.8281-554.2109,682.6406-556.4023 c -3.7188-3.7227-134.7891,46.1094-859.8008,326.9336 c -155.293,60.1367-401.4727,155.4688-547.0586,211.8477 c -145.5898,56.3633-267.8242,100.6914-271.6484,98.5039 c -16.0117-9.1992,15.2813-153.4219,45.2148-208.3516 c 35.3516-64.8945,37.6914-66.4023,276.3633-178.6719 c 187.8359-88.3438,232.293-153.1758,232.4922-339.0703 c 0.1523-144.5156,38.3516-194.8594,198.1172-261.082 c 199.9414-82.8711,278.0273-170.9648,278.1875-313.832 c 0.125-102.9297-4.3398-104.7227-74.9492-30.0508 c -84.957,89.8242-151.1289,122.0469-308.9492,150.4688 c -210.793,37.9531-288.4492,85.3555-364.7813,222.6445 c -65.3867,117.6289-129.1172,171.1602-252.8594,212.3789 c -167.8594,55.9336-313.5625,163.332-401.1875,295.7344 c -62.5781,94.5586-67.4922,107.9297,464.0625-1260.9766 c 61.5625-158.5313,119.4805-309.4141,128.7148-335.3008 l 16.7695-47.0547 l -28.0742,29.4102 c -15.457,16.1758-104.582,124.707-198.0352,241.1758 c -604.9688,753.875-895.9102,1112.1641-899.875,1108.1875 c -2.5039-2.5039,6.0156-28.4453,18.9453-57.6563 c 63.7031-144.0234,78.8906-317.9844,42.1055-482.0703 c -25.3008-112.8242-12.8398-187.1094,48.2656-287.7266 c 93.2852-153.6055,97.9805-235.3086,25.5469-444.6719 c -57.1758-165.2344-62.7344-250.9531-23.5039-362.5547 c 27.2422-77.5078,20.0859-83.457-54.3359-45.1758 c -135.3125,69.6133-169.0469,181.918-139.8438,465.7852 c 13.0703,127.1914-1.9531,153.2461-145.9766,253.1563 c -171.0469,118.6563-191.8594,176.6094-159.6016,444.5313 c 22.2266,184.5391,7.8828,239.2227-84.6563,322.8203 c -109.3906,98.8242-97.168,116.4844-148.4023-214.625 C 206.3398-2775.5859,166.0234-3035,140.2813-3200 C -18.3281-4216.3516-4.9531-4140.7773-16.6094-4086.1406 c -7.1563,33.5039-81.4375,508.7773-202.8477,1297.9023 c -61.9648,402.7539-86.4258,517.1445-86.4258,404.2383 c 0-138.8594-84.1055-340.707-190.2227-456.5078 c -97.1758-106.0469-115.7891-154.4219-126.2461-328.1172 c -11.6133-192.9375-31.5195-227.8672-219.0703-384.5313 c -105.9922-88.5156-157.0977-168.2461-182.7539-285.082 c -17.5195-79.75-22.3438-81.6211-60.4961-23.5234 c -87.1523,132.7031-71.8203,244.375,56.9063,414.6992 c 126.0391,166.7461,129.9414,196.1094,48.1992,362.4375 c -88.5977,180.293-76.0547,246.0352,89.9805,471.7305 c 117.7266,160.0234,129.2422,224.1797,65.2813,363.5273 l -28.6367,62.4063 l -563.7422-700.6172 c -310.0586-385.3438-565.5977-698.7656-567.8711-696.5039 c -4.1992,4.207,7.625,35.8438,178.7305,478.1992 c 534.332,1381.3906,473.5156,1217.5195,432.1758,1164.707 c -141.8555-181.2031-226.9023-240.3281-466.6563-324.3906 c -72.5781-25.4453-140.9297-92.6797-198.0117-194.8008 c -78.2734-139.9766-148.4961-183.0781-360.4609-221.2578 c -162.5625-29.2695-221.8008-57.0469-308.5273-144.668 c -74.6836-75.4336-81.1094-73.0391-80.6719,30.1992 c 0.6133,142.8945,89.5313,233.3633,318.707,324.2578 c 118.5273,47.0234,162.4102,119.5313,163.1055,269.5664 c 0.8008,175.4102,58.2695,245.3242,281.7266,342.7969 c 211.4141,92.2266,250.8867,136.1094,267.7773,297.6836 c 6.168,58.9766,4.5547,70.4375-9.1055,64.8828 c -15.7539-6.4219-656.8359-255.3281-1344.7422-522.125 c -174.0078-67.4883-318.3984-120.6875-320.8672-118.2148 c -4.6719,4.668,18.1016,23.2148,825.4922,672.2109 c 603.9414,485.4688,563.1055,447.8828,446.1172,410.5195 c -139.2695-44.4844-278.4219-49.9063-405.0352-15.8008 c -184.1758,49.6211-244.8945,44.1758-417.5508-37.4609 c -103.3086-48.8594-191.4961-46.4219-323.5313,8.8945 c -209.0234,87.5742-215.4844,89.5078-300.1523,89.625 c -45.375,0.0586-104.9805-6.625-132.4375-14.8477 c -69.3477-20.7773-72.6914-9.2227-19.5039,67.4453 c 80.6797,116.3086,192.8594,144.9336,405.8359,103.5664 c 179.5625-34.8828,220.1172-20.0625,324.4531,118.5781 c 118.7734,157.7891,203.5664,180.293,467.2148,123.9844 c 178.9922-38.2109,225.8594-27.1055,329.6367,78.1523 c 90.1523,91.4375,111.5547,80.9766-292.6953,143.1406 C -3778.75-196.2031-3969.5391-165.625-3962.5391-158.625 c 4.3281,4.3281,217.9141,38.918,727.2461,117.7656 c 760.3516,117.7031,1029.9258,159.918,1041.0898,163.0391 c 6.4258,1.7852-23.7148,25.6172-66.9844,52.9375 c -101.7305,64.25-140.4375,109.6016-178.4492,209.0938 c -75.1523,196.6563-205.293,258.5859-466.7656,222.1172 c -284.9258-39.7422-458.6797,34.3164-618.5039,263.6133 c -100.9883,144.8828-119,156.7969-229.1094,151.5781 c -91.6563-4.3672-93.9609-2.4961-48.9219,39.6445 c 118.3711,110.7539,346.6172,121.0938,445.0547,20.1641 c 129.375-132.6484,308.9688-182.1289,487.2969-134.2656 c 195.9453,52.5938,458.4336-38.875,557.1523-194.168 c 18.4922-29.0977,55.5508-87.1992,82.3477-129.1289 c 79.6367-124.5781,184.5547-183.9063,365.1445-206.4688 l 68.5156-8.5664 L -1806,460.2422 c -13.1055,78.7734-50.7539,170.5-92.2969,224.9688 c -56.1641,73.6367-306.668,289.9141-1145.8242,989.2813 c -366.8555,305.7422-421.6914,354.1641-370.5859,327.2617 c 19.2813-10.1523,423.6484-203.9648,1160.7422-556.3555 c 174.1406-83.2578,318.668-149.3281,321.1641-146.8242 c 2.4922,2.4961,9.7773,72.6602,16.1875,155.918 c 61.3555,797.7305,178.3867,1139.1328,508.4727,1483.2461 c 416.8203,434.543,1269.1641,838.8477,1460.5977,692.8398 c 139.7539-106.6016,110.2734-453.1406-38.6602-454.3672 c -50.4336-0.4102-123.2813-39.75-158.0703-85.3672 c -63.4336-83.1719-41.0547-98.0234,164.2734-109 c 212.3281-11.3594,254.0586-31.4336,309.6328-148.9609 C 397.3516,2689.7188,324.918,2663.4375-37,2699.8672 c -255.6367,25.7344-433.5898,8.6719-433.5898-41.5625 c 0-70.1641,333.3906-250.3281,444.082-239.9883 c 207.2148,19.3633,147.2266-103.4922-157.6094-322.8086 c -108.6953-78.2031-33.8359-165.1797,113.0938-131.4023 c 275.9297,63.4492,466.9297-87.8125,305.8359-242.1875 C -35.3164,1463.0234,117.5313,683.8477,463.8672,554.2734 c 175.6992-65.7422,492.543-63.6484,721.6836,4.75 c 34.1172,10.1758,66.2852,15.8828,71.4844,12.6719 c 10.1602-6.2852-70.1055-466.6953-120.4336-690.7539 c -39.7578-176.9531-40.8672-167.8242,19.2773-158.7891 c 195.0625,29.293,409.2461,218.4805,640.918,566.0859 c 295.2383,442.9883,600.332,623.1641,918.5781,542.457 c 116.4531-29.5195,177.1563-21.707,297.8281,38.3633 c 173.5234,86.3672,309.9414,89.5039,504.4453,11.6094 c 118.6445-47.5117,176.7734-52.7617,267.3516-24.125 c 67.9375,21.4805,72.4375,21.668,62.2109,2.5625 c -49.0391-91.625-251.3594-185.9766-457.0547-213.1367 c -132.3438-17.4727-164.2266-35.2734-284.2773-158.7227 c -157.5391-161.9961-157.7617-162.0703-558.8164-170.2578 c -410.6367-8.3906-460.8867-26.5391-406.8984-147.0703 L 2160.9414,123.5313 z M -1391.8711,1345.75 c -64.1289,58.7422-83.7891,113.5078-66.5313,185.4023 c 22.3555,93.1797-44.4805,161.0117-145.3047,147.4961 c -176.3164-23.6563-142.375-288.2617,45.5664-355.2109 c 25.5039-9.0859,83.1406-16.7539,128.082-17.0352 l 81.7148-0.5195 L -1391.8711,1345.75 z M -440.5508,1254.875 c -108.9336,237.9453-412.25,338.2891-657.5547,217.5273 C -1194.457,1424.9648-1331.1406,1280-1250,1311.3086 c 218.4805,84.3008,404.1055,74.5039,445.0469-23.4727 c 74.3516-177.9609-67.1523-319.1406-383.4492-382.5547 c -182.1289-36.5078-328.0781-94.4219-352.3867-139.8477 c -51.8242-96.8359,74.25-201.8789,288.8125-240.6211 C -604.7891,407.9531-213.8477,759.6914-440.5508,1254.875 z M 1256.6211,1446.9766 c -239.3945,57.3984-423.4336,14.6836-511.7461-118.7539 c -34.5586-52.2227-30.793-68.0313,9.9844-41.8789 c 121.5781,77.9492,446.668,55.4102,480.3984-33.3203 c 59.6719-156.9297-255.2344-326.4141-472.9297-254.543 c -209.375,69.1328-295.25,207.2969-222.375,357.8125 c 101.9414,210.5898,654.0781,949.5898,709.4805,949.5898 c 50.8242,0,179.2734-368.8203,198.8945-571.1094 C 1476.2109,1447.2969,1445.7891,1401.6211,1256.6211,1446.9766 z M 3373.3203,1716.0859 c -92.0859-66.4375-300.9336-217.7305-464.0977-336.2109 c -350.7266-254.7227-318.293-239.5586-533.7734-249.5938 c -212.0859-9.8828-260.3398-29.3398-379.8984-153.1758 c -48.832-50.5859-76.0664-72.0586-71.043-56.0352 c 52.0781,166.4102,207.7188,409.5547,296.0781,462.5273 c 99.6484,59.7578,1346.2695,495.5078,1326.6406,463.7227 C 3543.6719,1841.5781,3465.4102,1782.5195,3373.3203,1716.0859 z M 2512.4961,2165.5156 c -180.3555-67.7383-248.6992-132.3164-282.9883-267.3867 c -7.2227-28.457-16.8203-48.0703-21.3359-43.5625 c -31.5508,31.5508,6.2109,253.8555,58.6719,345.4336 c 70.4258,122.9063,135.8594,168,288.2031,198.6484 c 137.1328,27.5859,215.8047,66.2188,277.4336,136.2422 c 55.0234,62.5117,70.4844,45.6602,51.4727-56.0938 C 2856.5781,2332.2695,2776.3984,2264.6484,2512.4961,2165.5156 z M -2337.6719,2115.3984 c -74.7539,74.9102-115.5273,153.1914-145.4453,279.168 c -41.6719,175.4258-94.2109,277.8789-163.4805,318.7969 c -63.543,37.543,0.4219,54.3555,96.8555,25.4609 c 152.7422-45.7539,246.4141-208.7773,255.5313-444.707 c 3.8828-100.293,12.5273-181.1797,20.9883-196.2813 C -2239.707,2038-2268.2109,2045.7773-2337.6719,2115.3984 z M 1858.7891,2817.6484 c -196.3594-422.2383-204.6953-438.5547-215.2148-421.5313 c -21.2891,34.4609-20.625,97.8125,1.4961,141.1641 c 30.3906,59.5625,60.8086,207.2695,60.8086,295.2148 v 68.7734 l 183.6953,205.25 c 194.9102,217.7773,219.8984,240.6914,183.5195,168.293 C 2060.543,3249.8359,1964.1055,3044.1172,1858.7891,2817.6484 z M -1805.1758,2998.8477 c -12.1641,19.6914-137.5547,391.7617-133.4141,395.9023 c 4.6133,4.6172,306.9922-376.7383,313.0977-394.875 C -1620.5156,2985.1094-1796.0703,2984.1172-1805.1758,2998.8477 z M 1090.5273,3338.8594 c -93.7148,94.4453-92.5273,84.7031-24.1172,197.3867 c 65.3281,107.5859,64.3242,108.7305,92.0859-104.2852 C 1183.9883,3236.293,1187.5195,3241.1289,1090.5273,3338.8594 z" fill="#F7DF1E" />
  </g>
</svg>
